<svg xmlns="http://www.w3.org/2000/svg" xmlns:xlink="http://www.w3.org/1999/xlink" width="58" height="51" viewBox="0 0 58 51"><defs><clipPath id="clip-path"><rect id="Rectangle_1597" width="58" height="51" fill="#fff" stroke="#707070" stroke-width="1" data-name="Rectangle 1597" transform="translate(738 3543)"/></clipPath></defs><g id="icon_websitebuilder" clip-path="url(#clip-path)" transform="translate(-738 -3543)"><g id="computer_1_" data-name="computer (1)" transform="translate(742 3543.001)"><path id="Path_12111" fill="#f9556d" d="M35.46,28.762a2.187,2.187,0,1,0,2.187,2.187A2.189,2.189,0,0,0,35.46,28.762Zm0,2.883a.7.7,0,1,1,.7-.7A.7.7,0,0,1,35.46,31.645Zm0,0" data-name="Path 12111" transform="translate(-29.964 -25.902)"/><path id="Path_12112" fill="#f9556d" d="M91.445,28.762a2.187,2.187,0,1,0,2.187,2.187A2.19,2.19,0,0,0,91.445,28.762Zm0,2.883a.7.7,0,1,1,.7-.7A.7.7,0,0,1,91.445,31.645Zm0,0" data-name="Path 12112" transform="translate(-80.382 -25.902)"/><path id="Path_12113" fill="#f9556d" d="M147.432,28.762a2.187,2.187,0,1,0,2.187,2.187A2.189,2.189,0,0,0,147.432,28.762Zm0,2.883a.7.7,0,1,1,.7-.7A.7.7,0,0,1,147.432,31.645Zm0,0" data-name="Path 12113" transform="translate(-130.802 -25.902)"/><path id="Path_12114" fill="#f9556d" d="M50.113,14.7a.745.745,0,0,0,.745-.745l.056-10.675A3.283,3.283,0,0,0,47.635,0H3.28A3.284,3.284,0,0,0,0,3.279V39.333a3.279,3.279,0,0,0,3.28,3.28h14.5v2.672h-2.25a2.725,2.725,0,0,0-2.722,2.721v1.61a1.243,1.243,0,0,0,1.242,1.242H17.6a.745.745,0,0,0,0-1.49H14.3V48.007a1.233,1.233,0,0,1,1.231-1.231h19.8a1.233,1.233,0,0,1,1.231,1.231v1.361H22.229a.745.745,0,0,0,0,1.49h14.58a1.243,1.243,0,0,0,1.242-1.242v-1.61a2.725,2.725,0,0,0-2.722-2.721h-2.25V42.613h14.5a3.244,3.244,0,0,0,.5-.038,3.284,3.284,0,0,0,2.781-3.242V18.574a.745.745,0,1,0-1.49,0V35.016H26.075V10.135H49.368v3.818a.745.745,0,0,0,.745.745ZM1.546,10.135H24.585V34.963H1.546Zm30.043,35.15H19.27V42.613h12.32Zm17.779-8.778v2.826a1.792,1.792,0,0,1-1.607,1.78c-.06.006-.121.009-.183.009H3.28c-.062,0-.123,0-.183-.009a1.792,1.792,0,0,1-1.607-1.78V36.507ZM25.33,8.645H1.546V3.279A1.791,1.791,0,0,1,3.335,1.49H47.579a1.791,1.791,0,0,1,1.789,1.789V8.645Zm0,0" data-name="Path 12114"/><path id="Path_12115" fill="#f9556d" d="M40.156,118.3h3.775a.745.745,0,1,0,0-1.49H40.156a.745.745,0,1,0,0,1.49Zm0,0" data-name="Path 12115" transform="translate(-35.491 -105.194)"/><path id="Path_12116" fill="#f9556d" d="M104.1,118.3h1.788a.745.745,0,1,0,0-1.49H104.1a.745.745,0,1,0,0,1.49Zm0,0" data-name="Path 12116" transform="translate(-93.078 -105.194)"/><path id="Path_12117" fill="#f9556d" d="M74.612,143.258H72.128a.745.745,0,0,0,0,1.49h2.484a.745.745,0,1,0,0-1.49Zm0,0" data-name="Path 12117" transform="translate(-64.284 -129.013)"/><path id="Path_12118" fill="#f9556d" d="M192.506,170.656h-2.484a.745.745,0,0,0,0,1.49h2.484a.745.745,0,1,0,0-1.49Zm0,0" data-name="Path 12118" transform="translate(-170.455 -153.686)"/><path id="Path_12119" fill="#f9556d" d="M119.34,144a.745.745,0,0,0,.745.745h5.961a.745.745,0,1,0,0-1.49h-5.961A.745.745,0,0,0,119.34,144Zm0,0" data-name="Path 12119" transform="translate(-107.472 -129.013)"/><path id="Path_12120" fill="#f9556d" d="M95.359,171.4a.745.745,0,0,0,.745.745H97.4a.745.745,0,0,0,0-1.49H96.1A.745.745,0,0,0,95.359,171.4Zm0,0" data-name="Path 12120" transform="translate(-85.876 -153.686)"/><path id="Path_12121" fill="#f9556d" d="M134.65,172.147a.745.745,0,1,0,0-1.49h-3.576a.745.745,0,1,0,0,1.49Zm0,0" data-name="Path 12121" transform="translate(-117.368 -153.687)"/><path id="Path_12122" fill="#f9556d" d="M44.676,268.523a.745.745,0,0,0-.745-.745H40.156a.745.745,0,1,0,0,1.49h3.775A.745.745,0,0,0,44.676,268.523Zm0,0" data-name="Path 12122" transform="translate(-35.491 -241.15)"/><path id="Path_12123" fill="#f9556d" d="M104.1,267.777a.745.745,0,0,0,0,1.49h1.788a.745.745,0,1,0,0-1.49Zm0,0" data-name="Path 12123" transform="translate(-93.078 -241.149)"/><path id="Path_12124" fill="#f9556d" d="M75.357,294.972a.745.745,0,0,0-.745-.745H72.128a.745.745,0,0,0,0,1.49h2.484A.745.745,0,0,0,75.357,294.972Zm0,0" data-name="Path 12124" transform="translate(-64.284 -264.969)"/><path id="Path_12125" fill="#f9556d" d="M97.4,321.625H96.105a.745.745,0,1,0,0,1.49H97.4a.745.745,0,1,0,0-1.49Zm0,0" data-name="Path 12125" transform="translate(-85.877 -289.643)"/><path id="Path_12126" fill="#f9556d" d="M192.506,321.625h-2.484a.745.745,0,1,0,0,1.49h2.484a.745.745,0,1,0,0-1.49Zm0,0" data-name="Path 12126" transform="translate(-170.455 -289.643)"/><path id="Path_12127" fill="#f9556d" d="M126.791,294.972a.745.745,0,0,0-.745-.745h-5.961a.745.745,0,0,0,0,1.49h5.961A.745.745,0,0,0,126.791,294.972Zm0,0" data-name="Path 12127" transform="translate(-107.472 -264.969)"/><path id="Path_12128" fill="#f9556d" d="M134.65,321.625h-3.576a.745.745,0,1,0,0,1.49h3.576a.745.745,0,1,0,0-1.49Zm0,0" data-name="Path 12128" transform="translate(-117.368 -289.643)"/><path id="Path_12129" fill="#f9556d" d="M40.156,206.483h2.086a.745.745,0,1,0,0-1.49H40.156a.745.745,0,1,0,0,1.49Zm0,0" data-name="Path 12129" transform="translate(-35.491 -184.608)"/><path id="Path_12130" fill="#f9556d" d="M90.515,205.737a.745.745,0,0,0-.745-.745H82.12a.745.745,0,0,0,0,1.49h7.65A.745.745,0,0,0,90.515,205.737Zm0,0" data-name="Path 12130" transform="translate(-73.283 -184.608)"/><path id="Path_12131" fill="#f9556d" d="M80.126,232.187a.745.745,0,0,0-.745-.745H72.128a.745.745,0,0,0,0,1.49h7.253A.745.745,0,0,0,80.126,232.187Zm0,0" data-name="Path 12131" transform="translate(-64.284 -208.427)"/><path id="Path_12132" fill="#f9556d" d="M166.042,232.932h1.391a.745.745,0,1,0,0-1.49h-1.391a.745.745,0,1,0,0,1.49Zm0,0" data-name="Path 12132" transform="translate(-148.859 -208.427)"/><path id="Path_12133" fill="#f9556d" d="M293.081,289.652h-4.768a.745.745,0,1,0,0,1.49h4.768a.745.745,0,1,0,0-1.49Zm0,0" data-name="Path 12133" transform="translate(-258.97 -260.849)"/><path id="Path_12134" fill="#f9556d" d="M372.683,289.652h-9.438a.745.745,0,1,0,0,1.49h9.438a.745.745,0,1,0,0-1.49Zm0,0" data-name="Path 12134" transform="translate(-326.452 -260.849)"/><path id="Path_12135" fill="#f9556d" d="M293.081,318.625h-4.768a.745.745,0,1,0,0,1.49h4.768a.745.745,0,1,0,0-1.49Zm0,0" data-name="Path 12135" transform="translate(-258.97 -286.941)"/><path id="Path_12136" fill="#f9556d" d="M372.683,318.625h-9.438a.745.745,0,0,0,0,1.49h9.438a.745.745,0,1,0,0-1.49Zm0,0" data-name="Path 12136" transform="translate(-326.452 -286.941)"/><path id="Path_12137" fill="#f9556d" d="M305.762,118.734a1.928,1.928,0,0,0-1.925-1.926H289.262a1.928,1.928,0,0,0-1.926,1.926v10.092h0v1.765a1.928,1.928,0,0,0,1.926,1.926h14.575a1.928,1.928,0,0,0,1.925-1.926Zm-1.49,11.858a.436.436,0,0,1-.435.435H289.262a.435.435,0,0,1-.435-.435v-1.457l5.458-5.455,3.767,4.245a.745.745,0,0,0,1.115-.989l-.342-.385,1.684-1.684,3.764,4.242Zm0-3.728-2.868-3.232a1.18,1.18,0,0,0-1.717-.051l-1.854,1.853-2.653-2.989a1.18,1.18,0,0,0-1.717-.052l-4.637,4.635v-8.294a.436.436,0,0,1,.435-.435h14.575a.436.436,0,0,1,.435.435Zm0,0" data-name="Path 12137" transform="translate(-258.763 -105.194)"/></g></g></svg>